<svg width="256" height="111" viewBox="0 0 256 111" fill="none" xmlns="http://www.w3.org/2000/svg">
<path d="M13.0117 109V26.8223C13.0117 18.2773 14.8916 11.8076 18.6514 7.41309C22.4111 2.96973 27.5625 0.748047 34.1055 0.748047C35.4727 0.748047 36.8398 0.870117 38.207 1.11426C39.623 1.30957 40.9414 1.57812 42.1621 1.91992L41.3564 8.95117C40.4775 8.75586 39.4033 8.53613 38.1338 8.29199C36.8643 8.04785 35.5947 7.92578 34.3252 7.92578C30.0283 7.92578 26.708 9.39062 24.3643 12.3203C22.0205 15.2012 20.8486 20.0352 20.8486 26.8223V44.3271V45.1328V109H13.0117ZM0.780273 49.2344V42.0566H16.2344H17.5527H35.79V49.2344H0.780273ZM43.7734 109V42.0566H51.2441V51.4316H51.3174C53.2705 48.3066 55.7852 45.7188 58.8613 43.668C61.9863 41.6172 65.7705 40.5918 70.2139 40.5918C71.0439 40.5918 72.0449 40.665 73.2168 40.8115C74.3887 40.958 75.2188 41.1289 75.707 41.3242V48.7217C74.877 48.5264 73.9004 48.3555 72.7773 48.209C71.6543 48.0625 70.4336 47.9893 69.1152 47.9893C65.6484 47.9893 62.3281 49.1611 59.1543 51.5049C55.9805 53.7998 53.4658 56.8271 51.6104 60.5869V109H43.7734ZM76.8789 90.1035C76.8789 83.6094 79.3691 78.4336 84.3496 74.5762C89.3789 70.6699 96.0928 68.7168 104.491 68.7168H120.604V61.7588C120.604 57.1201 119.384 53.6289 116.942 51.2852C114.501 48.9414 110.546 47.7695 105.077 47.7695C99.7061 47.7695 95.5801 48.7949 92.6992 50.8457C89.8184 52.8477 88.3779 55.8018 88.3779 59.708V61.4658H80.4678V58.7559C80.4678 53.6777 82.665 49.3809 87.0596 45.8652C91.4541 42.3496 97.4844 40.5918 105.15 40.5918C112.475 40.5918 118.188 42.2031 122.289 45.4258C126.391 48.5996 128.441 54.0439 128.441 61.7588V91.4219C128.441 94.5957 128.637 97.5986 129.027 100.431C129.467 103.263 130.15 105.729 131.078 107.828V109H123.827C123.095 107.73 122.46 106.119 121.923 104.166C121.435 102.213 121.068 100.235 120.824 98.2334C119.262 101.261 116.601 103.971 112.841 106.363C109.081 108.756 104.296 109.952 98.4854 109.952C91.7959 109.952 86.5225 108.268 82.665 104.898C78.8076 101.48 76.8789 96.5488 76.8789 90.1035ZM84.7158 89.8838C84.7158 94.1807 86.0098 97.4277 88.5977 99.625C91.2344 101.773 94.9697 102.848 99.8037 102.848C105.028 102.848 109.789 101.09 114.086 97.5742C118.432 94.0098 120.604 90.0059 120.604 85.5625V75.3818H105.883C98.6562 75.3818 93.3096 76.6758 89.8428 79.2637C86.4248 81.8516 84.7158 85.3916 84.7158 89.8838ZM149.022 104.093C149.022 102.335 149.535 100.87 150.561 99.6982C151.586 98.4775 153.051 97.8672 154.955 97.8672C156.859 97.8672 158.324 98.4775 159.35 99.6982C160.375 100.87 160.888 102.359 160.888 104.166C160.888 105.924 160.375 107.413 159.35 108.634C158.324 109.806 156.859 110.392 154.955 110.392C153.051 110.392 151.586 109.781 150.561 108.561C149.535 107.34 149.022 105.851 149.022 104.093ZM177.221 90.1035C177.221 83.6094 179.711 78.4336 184.691 74.5762C189.721 70.6699 196.435 68.7168 204.833 68.7168H220.946V61.7588C220.946 57.1201 219.726 53.6289 217.284 51.2852C214.843 48.9414 210.888 47.7695 205.419 47.7695C200.048 47.7695 195.922 48.7949 193.041 50.8457C190.16 52.8477 188.72 55.8018 188.72 59.708V61.4658H180.81V58.7559C180.81 53.6777 183.007 49.3809 187.401 45.8652C191.796 42.3496 197.826 40.5918 205.492 40.5918C212.816 40.5918 218.529 42.2031 222.631 45.4258C226.732 48.5996 228.783 54.0439 228.783 61.7588V91.4219C228.783 94.5957 228.979 97.5986 229.369 100.431C229.809 103.263 230.492 105.729 231.42 107.828V109H224.169C223.437 107.73 222.802 106.119 222.265 104.166C221.776 102.213 221.41 100.235 221.166 98.2334C219.604 101.261 216.942 103.971 213.183 106.363C209.423 108.756 204.638 109.952 198.827 109.952C192.138 109.952 186.864 108.268 183.007 104.898C179.149 101.48 177.221 96.5488 177.221 90.1035ZM185.058 89.8838C185.058 94.1807 186.352 97.4277 188.939 99.625C191.576 101.773 195.312 102.848 200.146 102.848C205.37 102.848 210.131 101.09 214.428 97.5742C218.773 94.0098 220.946 90.0059 220.946 85.5625V75.3818H206.225C198.998 75.3818 193.651 76.6758 190.185 79.2637C186.767 81.8516 185.058 85.3916 185.058 89.8838ZM246.508 109V42.0566H254.345V109H246.508ZM244.97 16.5684C244.97 15.0059 245.434 13.6875 246.361 12.6133C247.338 11.5391 248.705 11.002 250.463 11.002C252.221 11.002 253.563 11.5391 254.491 12.6133C255.419 13.6387 255.883 14.957 255.883 16.5684C255.883 18.1309 255.395 19.4736 254.418 20.5967C253.49 21.6709 252.147 22.208 250.39 22.208C248.632 22.208 247.289 21.6709 246.361 20.5967C245.434 19.4736 244.97 18.1309 244.97 16.5684Z" fill="#7398CE"/>
</svg>
